# xmcd
#
# Track frame offsets:
#	150
#	12473
#	23566
#	41197
#	55025
#	72950
#	87446
#	97263
#	107795
#	124182
#	136799
#	153273
#	167960
#	178383
#	190701
#	209235
#	219881
#	226428
#	240259
#	258432
#	282857
#	296416
#	310127
#	326107
#
# Disc length: 4513 seconds
#
# Revision: 0
# Processed by: cddbd v1.5.1PL0 Copyright (c) Steve Scherf et al.
# Submitted via: dBpowerAMP V4.0
#
DISCID=63119f18
DTITLE=Various Artist - Woke up this Morning The 60's Blues Explosion
DYEAR=1900
DGENRE=Blues
TTITLE0=Woke up this morning Alexis Korner's Blues Incorporated
TTITLE1=Chicago Calling Cyril Davies and his Rhythum and Blues All - Stars
TTITLE2=My Baby's Sweeter Fleetwood Mac
TTITLE3=Who do you Love Juicy Lucy
TTITLE4=Telephone Blues John Mayall's Blues Breakers
TTITLE5=When the Train Comes Back Chicken Shack
TTITLE6=Tribute to Elmore Eric Clapton
TTITLE7=You Said The Primitives
TTITLE8=I Can't Quit you Baby Savoy Brown Blues Band
TTITLE9=Oh Well (live) Fleetwood Mac
TTITLE10=Married Woman Blues Dave Kelly
TTITLE11=Tell Me Papa(How you want it done) Jo Ann Kelly
TTITLE12=Zulu Stomp The Brand
TTITLE13=Ride with your Daddy Tonight Duster Bennett
TTITLE14=Gone Back Home Brunning Sunflower Blues Band
TTITLE15=I'm Looking for a Woman Jimmy Powell and The Dimensions
TTITLE16=Choker Eric Clapton and Jimmy Page
TTITLE17=One Scotch One Bourbon One Beer Alexis Korner and Peter Thorup
TTITLE18=Monkey Speaks his Mind John Dummer Blues Band
TTITLE19=Moving to Chicago Shakey Vick
TTITLE20=Rock Me Baby(live) Zoot Money's Big Roll Band
TTITLE21=79th Street Blues Humble Pie
TTITLE22=Lazy Poker Blues Status Quo
TTITLE23=On Top of the World John Mayall's Blues Breakers
EXTD=
EXTT0=
EXTT1=
EXTT2=
EXTT3=
EXTT4=
EXTT5=
EXTT6=
EXTT7=
EXTT8=
EXTT9=
EXTT10=
EXTT11=
EXTT12=
EXTT13=
EXTT14=
EXTT15=
EXTT16=
EXTT17=
EXTT18=
EXTT19=
EXTT20=
EXTT21=
EXTT22=
EXTT23=
PLAYORDER=
